<svg width="146" height="31" viewBox="0 0 146 31" fill="none" xmlns="http://www.w3.org/2000/svg">
<g clip-path="url(#clip0_2306_174)">
<g clip-path="url(#clip1_2306_174)">
<path d="M71.1524 1.69922H62.3076V30.1598H71.1524V1.69922Z" fill="#859BA6"/>
<path d="M5.73176 12.3196L0 30.157H12.1725L5.73176 12.3196Z" fill="#859BA6"/>
<path d="M7.53711 7.02607L9.37696 1.68652H16.0648L25.8283 30.1573H15.4283L7.53711 7.02607Z" fill="#859BA6"/>
<path d="M21.1221 6.9547L22.9619 1.68628H29.6149L39.3808 30.1571H28.9433L21.1221 6.9547Z" fill="#859BA6"/>
<path d="M138.131 4.54657C138.131 -0.848857 146 -0.848857 146 4.54657C146 9.942 138.131 9.942 138.131 4.54657ZM145.555 4.54657C145.555 -0.287468 138.578 -0.287468 138.578 4.54657C138.578 9.38061 145.555 9.39077 145.555 4.54657ZM143.933 6.79975V6.85563H143.423L142.13 5.18925H140.934V6.85563H140.467V2.26037H142.242C143.124 2.26037 143.783 2.81922 143.783 3.73116C143.783 4.4729 143.316 5.01905 142.612 5.13082L143.933 6.79721V6.79975ZM140.932 4.77011H142.212C142.832 4.77011 143.313 4.39162 143.313 3.7337C143.313 3.11643 142.832 2.69729 142.212 2.69729H140.932V4.77011Z" fill="#859BA6"/>
<path d="M113.684 17.2146L109.473 30.157H118.352L113.684 17.2146Z" fill="#859BA6"/>
<path d="M115.204 13.5796L116.477 9.88354H123.624L130.56 30.157H120.936L115.204 13.5796Z" fill="#859BA6"/>
<path d="M127.412 13.5061L128.755 9.88379H135.902L142.768 30.1573H133.074L127.412 13.5061Z" fill="#859BA6"/>
<path d="M59.8311 21.716C59.8311 21.716 60.7748 9.1876 49.5709 9.1876C49.5709 9.1876 39.2158 8.56271 39.2158 20.108C39.2158 20.108 38.9062 30.5 49.5334 30.5C49.5334 30.5 55.9392 30.4772 58.4631 25.7244L57.5569 25.1453C57.5569 25.1453 55.1778 28.7371 49.8879 28.7371C49.8879 28.7371 48.3526 28.6863 47.9283 28.5949L47.9432 21.716H59.8311ZM47.8134 20.0242V12.9903C47.8134 12.3781 48.1779 11.2731 49.4635 11.2731C50.6194 11.2731 50.9963 12.4137 50.9963 13.0259V20.0216H47.8109L47.8134 20.0242Z" fill="#859BA6"/>
<path d="M109.992 21.716C109.992 21.716 110.936 9.1876 99.732 9.1876C99.732 9.1876 89.3769 8.56271 89.3769 20.108C89.3769 20.108 89.0674 30.5 99.6946 30.5C99.6946 30.5 106.1 30.4772 108.624 25.7244L107.718 25.1453C107.718 25.1453 105.339 28.7371 100.049 28.7371C100.049 28.7371 98.5138 28.6863 98.0894 28.5949L98.1044 21.716H109.992ZM97.9745 20.0242V12.9903C97.9745 12.3781 98.339 11.2731 99.6247 11.2731C100.781 11.2731 101.157 12.4137 101.157 13.0259V20.0216H97.9721L97.9745 20.0242Z" fill="#859BA6"/>
<path d="M72.4033 7.81847L84.421 2.53735V5.98189H132.771V7.81847H84.421V26.324C84.421 26.324 84.4735 27.6932 85.6243 27.6932C86.7751 27.6932 87.8012 26.1258 87.8012 26.1258L88.5176 26.8549C88.5176 26.8549 87.1122 30.5001 81.9096 30.5001C76.7071 30.5001 75.2767 26.8269 75.2767 24.3248V7.81847H72.4058H72.4033Z" fill="#859BA6"/>
</g>
</g>
<defs>
<clipPath id="clip0_2306_174">
<rect width="146" height="30" fill="white" transform="translate(0 0.5)"/>
</clipPath>
<clipPath id="clip1_2306_174">
<rect width="146" height="30" fill="white" transform="translate(0 0.5)"/>
</clipPath>
</defs>
</svg>
