<svg width="22" height="22" viewBox="0 0 22 22" fill="none" xmlns="http://www.w3.org/2000/svg">
<path d="M0.435123 0.643617C1.01529 0.0658433 1.95592 0.0658433 2.53608 0.643617L21.4447 19.4744C22.0249 20.0521 22.0249 20.9889 21.4447 21.5667C20.8646 22.1444 19.9239 22.1444 19.3438 21.5667L0.435123 2.73592C-0.145041 2.15815 -0.145041 1.22139 0.435123 0.643617Z" fill="#A2A2A2"/>
<path d="M0.555279 21.3564C-0.0248851 20.7786 -0.0248851 19.8419 0.555279 19.2641L19.4639 0.433331C20.0441 -0.144443 20.9847 -0.144444 21.5649 0.43333C22.145 1.0111 22.145 1.94786 21.5649 2.52564L2.65624 21.3564C2.07607 21.9342 1.13544 21.9342 0.555279 21.3564Z" fill="#A2A2A2"/>
</svg>
